#!OML:ASF E:\emotionWalksFemale\Project 1\Capture day 1\Session 1\Female1.ASF
:FULLY-SPECIFIED
:DEGREES
83
root 7.93773 15.5445 22.2173 -177.361 0.858428 -179.697
lowerback 8.78114 1.01092 -0.0686268
upperback -4.49062 1.43812 0.178579
thorax -9.73415 0.736589 -0.0211963
lowerneck -6.87127 -3.5132 -7.8148
upperneck 1.76973 -4.35226 7.22091
head 2.18125 -2.08667 3.60969
rclavicle -1.52505e-015 8.69683e-016
rhumerus -48.1747 25.048 -101.918
rradius 33.8762
rwrist 22.5656
rhand 3.66574 -52.5945
rfingers 7.12502
rthumb 29.0965 -80.3416
lclavicle -1.52505e-015 8.69683e-016
lhumerus -45.2133 -10.0388 90.4169
lradius 31.4393
lwrist -4.00783
lhand 11.1347 -37.7372
lfingers 7.12502
lthumb 36.2018 -11.4706
rfemur 1.29271 22.4171 27.116
rtibia 10.7915
rfoot -17.4239 -37.6981
rtoes 11.7255
lfemur -6.83616 -25.2327 -22.415
ltibia 22.2582
lfoot -22.7592 18.5415
ltoes -17.2312
84
root 7.93741 15.5453 22.2076 -177.381 1.0218 -179.698
lowerback 7.94357 1.0238 0.0511446
upperback -4.03623 1.44602 0.117053
thorax -8.73815 0.728266 -0.13071
lowerneck -7.07226 -3.50573 -7.78111
upperneck 1.46957 -4.33283 7.29811
head 2.11796 -2.07547 3.62837
rclavicle -9.55875e-016 -4.47266e-016
rhumerus -47.1407 25.5261 -101.41
rradius 33.5686
rwrist 23.0151
rhand 4.06256 -52.124
rfingers 7.12502
rthumb 29.4754 -79.805
lclavicle -9.55875e-016 -4.47266e-016
lhumerus -44.241 -10.4724 89.9127
lradius 31.249
lwrist -3.72132
lhand 12.0417 -37.459
lfingers 7.12502
lthumb 37.0602 -11.4101
rfemur 1.24332 22.3722 27.1025
rtibia 10.9806
rfoot -17.4406 -37.5396
rtoes 11.5157
lfemur -6.72581 -25.2568 -22.471
ltibia 22.2363
lfoot -22.7388 18.6862
ltoes -17.2979
85
root 7.93767 15.5432 22.1988 -177.408 1.16382 -179.758
lowerback 7.70393 1.02897 -0.0375175
upperback -3.92642 1.43983 0.129077
thorax -8.48108 0.730438 -0.0606055
lowerneck -7.18605 -3.49326 -7.73789
upperneck 1.5034 -4.3087 7.20051
head 2.14326 -2.06312 3.58589
rclavicle -1.43746e-014 -3.23025e-016
rhumerus -46.5499 25.9572 -100.941
rradius 33.3402
rwrist 23.0563
rhand 5.13651 -52.0695
rfingers 7.12502
rthumb 30.5002 -79.5651
lclavicle -1.43746e-014 -3.23025e-016
lhumerus -43.7927 -10.5832 89.4107
lradius 31.1948
lwrist -3.86541
lhand 12.9267 -37.0809
lfingers 7.12502
lthumb 37.8967 -11.2536
rfemur 1.21782 22.3444 27.0289
rtibia 11.1064
rfoot -17.3796 -37.3899
rtoes 11.1937
lfemur -6.62506 -25.3042 -22.5862
ltibia 22.2077
lfoot -22.6884 18.8947
ltoes -17.5678
86
root 7.93959 15.5422 22.1936 -177.433 1.21862 -179.816
lowerback 7.77597 0.99815 -0.142114
upperback -3.95681 1.3887 0.145084
thorax -8.55908 0.712022 0.020807
lowerneck -7.236 -3.483 -7.76977
upperneck 1.52396 -4.28635 7.15151
head 2.1568 -2.05212 3.57567
rclavicle -1.28278e-014 -2.48481e-016
rhumerus -46.127 26.3226 -100.478
rradius 33.2312
rwrist 22.9852
rhand 6.15722 -52.2372
rfingers 7.12502
rthumb 31.4731 -79.5474
lclavicle -1.28278e-014 -2.48481e-016
lhumerus -43.547 -10.656 88.8399
lradius 31.2844
lwrist -4.14994
lhand 13.2079 -36.7006
lfingers 7.12502
lthumb 38.1622 -10.9457
rfemur 1.24417 22.3386 26.9864
rtibia 11.1575
rfoot -17.3893 -37.302
rtoes 11.0949
lfemur -6.57398 -25.3188 -22.6614
ltibia 22.1982
lfoot -22.6909 18.8795
ltoes -17.1397
87
root 7.9424 15.5432 22.1893 -177.443 1.27098 -179.831
lowerback 7.764 0.987604 -0.2151
upperback -3.93411 1.36743 0.173024
thorax -8.52989 0.706363 0.0951061
lowerneck -7.27356 -3.4976 -7.88327
upperneck 1.43484 -4.2942 7.20683
head 2.14038 -2.05591 3.6163
rclavicle -1.82835e-014 -3.18055e-015
rhumerus -45.6024 26.5913 -99.9037
rradius 33.0265
rwrist 23.1957
rhand 6.24981 -52.2887
rfingers 7.12502
rthumb 31.5613 -79.5817
lclavicle -1.82835e-014 -3.18055e-015
lhumerus -43.1075 -10.9619 88.3444
lradius 31.2475
lwrist -4.26524
lhand 12.9042 -36.5639
lfingers 7.12502
lthumb 37.8754 -10.7309
rfemur 1.27263 22.3645 27.0002
rtibia 11.1803
rfoot -17.4651 -37.3393
rtoes 11.0975
lfemur -6.53982 -25.3462 -22.6792
ltibia 22.2037
lfoot -22.7894 18.8127
ltoes -16.6381
88
root 7.94544 15.5424 22.184 -177.448 1.39674 -179.809
lowerback 7.63975 1.00884 -0.235817
upperback -3.86916 1.39326 0.193802
thorax -8.38805 0.720258 0.128178
lowerneck -7.36374 -3.50611 -8.04834
upperneck 1.40733 -4.29384 7.37856
head 2.1597 -2.053 3.70869
rclavicle -1.3713e-014 -1.04362e-015
rhumerus -44.8522 26.503 -99.1053
rradius 32.7294
rwrist 23.7333
rhand 6.14371 -52.2457
rfingers 7.12502
rthumb 31.4602 -79.5584
lclavicle -1.3713e-014 -1.04362e-015
lhumerus -42.4519 -11.1044 87.7045
lradius 31.0691
lwrist -4.46667
lhand 12.9474 -36.304
lfingers 7.12502
lthumb 37.9162 -10.482
rfemur 1.33617 22.4528 27.042
rtibia 11.1012
rfoot -17.4296 -37.3849
rtoes 10.9738
lfemur -6.52464 -25.2855 -22.6662
ltibia 22.2494
lfoot -22.8882 18.8773
ltoes -16.7072
89
root 7.94761 15.5415 22.1798 -177.478 1.49405 -179.767
lowerback 7.58621 1.01024 -0.197796
upperback -3.82874 1.39856 0.202083
thorax -8.31235 0.720544 0.116423
lowerneck -7.41017 -3.493 -8.09401
upperneck 1.33321 -4.27248 7.4536
head 2.14587 -2.04154 3.74473
rclavicle 1.31089e-014 1.98785e-016
rhumerus -44.1149 26.326 -98.2785
rradius 32.565
rwrist 24.0935
rhand 6.2858 -52.2964
rfingers 7.12502
rthumb 31.5956 -79.5826
lclavicle 1.31089e-014 1.98785e-016
lhumerus -41.6774 -10.8566 86.8477
lradius 30.7443
lwrist -4.98835
lhand 13.1284 -36.2542
lfingers 7.12502
lthumb 38.0871 -10.4787
rfemur 1.45409 22.5573 27.1104
rtibia 10.9565
rfoot -17.3488 -37.3557
rtoes 11.2041
lfemur -6.50978 -25.1845 -22.6357
ltibia 22.3226
lfoot -23.0197 18.8607
ltoes -16.6796
90
root 7.9483 15.543 22.1749 -177.506 1.54781 -179.728
lowerback 7.56601 1.00614 -0.14105
upperback -3.82401 1.39928 0.201545
thorax -8.29401 0.717784 0.0843514
lowerneck -7.39865 -3.48003 -8.06364
upperneck 1.28961 -4.25958 7.47397
head 2.1277 -2.03528 3.74654
rclavicle 1.9161e-014 3.47873e-015
rhumerus -43.5126 26.3195 -97.5599
rradius 32.4849
rwrist 24.1647
rhand 6.90765 -52.5841
rfingers 7.12502
rthumb 32.1878 -79.7522
lclavicle 1.9161e-014 3.47873e-015
lhumerus -40.9114 -10.6534 85.9989
lradius 30.4281
lwrist -5.41574
lhand 12.9412 -36.6323
lfingers 7.12502
lthumb 37.9103 -10.8087
rfemur 1.55755 22.5976 27.1744
rtibia 10.8567
rfoot -17.3473 -37.2856
rtoes 11.6611
lfemur -6.45019 -25.149 -22.6295
ltibia 22.3792
lfoot -23.0599 18.9259
ltoes -17.1225
91
root 7.94956 15.5427 22.1674 -177.522 1.62337 -179.714
lowerback 7.46618 1.02956 -0.130335
upperback -3.79948 1.43096 0.194553
thorax -8.20889 0.732566 0.0686747
lowerneck -7.40468 -3.49842 -8.10513
upperneck 1.28999 -4.28583 7.57223
head 2.13625 -2.0471 3.78825
rclavicle 2.04997e-014 3.60297e-015
rhumerus -42.9106 26.3513 -96.8432
rradius 32.4027
rwrist 24.1013
rhand 7.16691 -52.7929
rfingers 7.12502
rthumb 32.4346 -79.9107
lclavicle 2.04997e-014 3.60297e-015
lhumerus -40.1841 -10.6646 85.1676
lradius 30.3027
lwrist -5.45767
lhand 13.0581 -36.8156
lfingers 7.12502
lthumb 38.0208 -11.022
rfemur 1.62617 22.628 27.2151
rtibia 10.8356
rfoot -17.3272 -37.2584
rtoes 11.6755
lfemur -6.36906 -25.1561 -22.6538
ltibia 22.3898
lfoot -23.0528 19.0273
ltoes -17.2087
92
root 7.95203 15.5403 22.1624 -177.522 1.68755 -179.713
lowerback 7.454 1.04507 -0.116333
upperback -3.81766 1.45216 0.168099
thorax -8.22041 0.741663 0.0298225
lowerneck -7.41188 -3.53931 -8.17421
upperneck 1.28499 -4.33793 7.64901
head 2.14568 -2.07225 3.82643
rclavicle -1.35189e-014 -3.00662e-015
rhumerus -42.4024 26.2948 -96.144
rradius 32.3612
rwrist 24.1342
rhand 6.8998 -52.5794
rfingers 7.12502
rthumb 32.1803 -79.749
lclavicle -1.35189e-014 -3.00662e-015
lhumerus -39.6028 -10.5534 84.2835
lradius 30.357
lwrist -5.60992
lhand 13.5541 -36.5103
lfingers 7.12502
lthumb 38.489 -10.8458
rfemur 1.62518 22.6724 27.237
rtibia 10.8893
rfoot -17.2761 -37.3096
rtoes 11.1526
lfemur -6.34058 -25.1267 -22.6526
ltibia 22.363
lfoot -23.0807 19.0024
ltoes -16.8703
93
root 7.95354 15.5404 22.1588 -177.462 1.72941 -179.759
lowerback 7.66229 1.03265 -0.109467
upperback -4.02161 1.4406 0.116961
thorax -8.56132 0.736285 -0.0337843
lowerneck -7.39119 -3.55244 -8.22969
upperneck 1.48158 -4.35739 7.68899
head 2.21306 -2.08022 3.8518
rclavicle -6.08856e-015 -6.83322e-016
rhumerus -42.1601 26.1534 -95.5552
rradius 32.3538
rwrist 24.2641
rhand 7.03723 -52.2831
rfingers 7.12502
rthumb 32.3111 -79.4262
lclavicle -6.08856e-015 -6.83322e-016
lhumerus -39.4021 -10.2593 83.38
lradius 30.5006
lwrist -6.09137
lhand 13.3567 -36.4477
lfingers 7.12502
lthumb 38.3027 -10.7315
rfemur 1.51842 22.6703 27.1646
rtibia 10.9907
rfoot -17.4063 -37.2562
rtoes 11.0983
lfemur -6.3838 -25.0491 -22.667
ltibia 22.3244
lfoot -23.037 18.9596
ltoes -16.812
94
root 7.9535 15.5405 22.1544 -177.393 1.81864 -179.826
lowerback 7.63188 1.03594 -0.136838
upperback -4.10673 1.44331 0.0754686
thorax -8.63539 0.739536 -0.0634621
lowerneck -7.44908 -3.53982 -8.21479
upperneck 1.66327 -4.34329 7.70041
head 2.28368 -2.07088 3.85424
rclavicle -4.67222e-015 -1.39149e-015
rhumerus -41.7476 26.17 -94.9403
rradius 32.3617
rwrist 24.2212
rhand 7.08565 -52.1289
rfingers 7.12502
rthumb 32.3572 -79.2625
lclavicle -4.67222e-015 -1.39149e-015
lhumerus -38.9936 -10.0763 82.5146
lradius 30.5003
lwrist -6.39298
lhand 12.5045 -37.0563
lfingers 7.12502
lthumb 37.4978 -11.1222
rfemur 1.3962 22.658 27.0473
rtibia 11.0729
rfoot -17.4855 -37.1203
rtoes 11.2925
lfemur -6.42155 -25.0135 -22.7225
ltibia 22.3064
lfoot -22.9972 19.0389
ltoes -17.1277
95
root 7.95383 15.5392 22.1495 -177.386 1.90344 -179.828
lowerback 7.71391 1.0458 -0.139243
upperback -4.20337 1.4604 0.0720375
thorax -8.78859 0.749191 -0.0716564
lowerneck -7.5982 -3.526 -8.15453
upperneck 2.10146 -4.34043 7.97067
head 2.21068 -2.0433 3.53652
rclavicle -1.97597e-014 -3.11843e-015
rhumerus -41.4133 26.2023 -94.3709
rradius 32.3395
rwrist 24.1362
rhand 6.74667 -51.9287
rfingers 7.12502
rthumb 32.0345 -79.1277
lclavicle -1.97597e-014 -3.11843e-015
lhumerus -38.5418 -10.0019 81.7866
lradius 30.4316
lwrist -6.538
lhand 11.8185 -37.6267
lfingers 7.12502
lthumb 36.8491 -11.5233
rfemur 1.38711 22.6531 27.0382
rtibia 11.0866
rfoot -17.336 -37.0964
rtoes 10.6712
lfemur -6.41567 -25.051 -22.7434
ltibia 22.3334
lfoot -23.0189 19.2764
ltoes -17.7286
